<svg width="23" height="21" viewBox="0 0 23 21" fill="none" xmlns="http://www.w3.org/2000/svg">
<path d="M13.9382 5.21372C14.9149 5.37478 15.8126 5.77852 16.5162 6.37325C17.2199 6.96798 17.6976 7.72666 17.8882 8.55217L13.9382 5.21372ZM13.9382 1.83301C15.9674 2.02354 17.8598 2.79159 19.3044 4.01104C20.7491 5.23049 21.6602 6.82886 21.8882 8.54372L13.9382 1.83301ZM20.8882 15.2882V17.8238C20.8893 18.0592 20.8323 18.2922 20.7207 18.5078C20.6091 18.7235 20.4455 18.9171 20.2403 19.0762C20.035 19.2353 19.7928 19.3565 19.5289 19.4319C19.2651 19.5073 18.9855 19.5353 18.7082 19.5141C15.631 19.2315 12.6752 18.3428 10.0781 16.9194C7.66197 15.6218 5.61347 13.8905 4.07813 11.8484C2.3881 9.64347 1.33636 7.13312 1.00812 4.52067C0.983127 4.28695 1.01599 4.0514 1.10462 3.829C1.19324 3.6066 1.33569 3.40224 1.52288 3.22892C1.71008 3.0556 1.93792 2.91713 2.19191 2.82231C2.4459 2.72749 2.72046 2.67841 2.99812 2.67819H5.99813C6.48344 2.67415 6.95393 2.8194 7.3219 3.08686C7.68987 3.35432 7.93022 3.72574 7.99814 4.13189C8.12476 4.94332 8.35959 5.74004 8.69814 6.50684C8.83269 6.80935 8.8618 7.13812 8.78205 7.45419C8.70229 7.77025 8.517 8.06037 8.24814 8.29017L6.97814 9.36355C8.4017 11.4795 10.4746 13.2315 12.9782 14.4346L14.2482 13.3612C14.52 13.134 14.8633 12.9774 15.2373 12.91C15.6112 12.8426 16.0002 12.8672 16.3582 12.9809C17.2654 13.267 18.2081 13.4655 19.1682 13.5725C19.6539 13.6305 20.0976 13.8372 20.4147 14.1536C20.7318 14.4699 20.9003 14.8737 20.8882 15.2882Z" stroke="white" stroke-width="2" stroke-linecap="round" stroke-linejoin="round"/>
</svg>
