<svg width="23" height="21" viewBox="0 0 23 21" fill="none" xmlns="http://www.w3.org/2000/svg">
<path d="M13.9381 4.4623C14.9149 4.62725 15.8125 5.04073 16.5162 5.64982C17.2199 6.2589 17.6976 7.03589 17.8881 7.88133L13.9381 4.4623ZM13.9381 1C15.9674 1.19513 17.8597 1.98171 19.3044 3.23059C20.749 4.47948 21.6601 6.11643 21.8881 7.87267L13.9381 1ZM20.8881 14.78V17.3767C20.8893 17.6178 20.8322 17.8564 20.7206 18.0772C20.6091 18.2981 20.4454 18.4964 20.2402 18.6594C20.035 18.8223 19.7927 18.9464 19.5289 19.0236C19.265 19.1009 18.9855 19.1295 18.7081 19.1078C15.631 18.8184 12.6751 17.9083 10.0781 16.4505C7.66195 15.1216 5.61345 13.3485 4.07812 11.2571C2.3881 8.99896 1.33636 6.42802 1.00812 3.75253C0.983127 3.51317 1.01599 3.27193 1.10462 3.04416C1.19324 2.8164 1.33569 2.6071 1.52288 2.4296C1.71008 2.2521 1.93792 2.11028 2.19191 2.01318C2.44589 1.91607 2.72046 1.8658 2.99812 1.86558H5.99812C6.48342 1.86144 6.95391 2.01019 7.32188 2.28411C7.68985 2.55802 7.9302 2.93841 7.99812 3.35437C8.12474 4.18538 8.35957 5.00132 8.69812 5.78663C8.83266 6.09644 8.86178 6.43314 8.78203 6.75684C8.70227 7.08054 8.51698 7.37766 8.24812 7.613L6.97812 8.71228C8.40167 10.8793 10.4746 12.6735 12.9781 13.9057L14.2481 12.8065C14.52 12.5737 14.8633 12.4133 15.2372 12.3443C15.6112 12.2753 16.0002 12.3005 16.3581 12.4169C17.2654 12.71 18.2081 12.9132 19.1681 13.0228C19.6539 13.0822 20.0975 13.2939 20.4147 13.6179C20.7318 13.9419 20.9003 14.3555 20.8881 14.78Z" stroke="black" stroke-width="2" stroke-linecap="round" stroke-linejoin="round"/>
</svg>
