<svg width="16" height="13" viewBox="0 0 16 13" fill="none" xmlns="http://www.w3.org/2000/svg">
<path d="M13.8666 12.2123C13.7194 12.2123 13.6 12.0879 13.6 11.9347V4.71838C13.6 4.56517 13.7194 4.44083 13.8666 4.44083C14.0138 4.44083 14.1333 4.56517 14.1333 4.71838V11.9347C14.1333 12.0879 14.0138 12.2123 13.8666 12.2123Z" fill="#040404"/>
<path d="M2.13337 12.2123C1.98617 12.2123 1.8667 12.0879 1.8667 11.9347V4.71838C1.8667 4.56517 1.98617 4.44083 2.13337 4.44083C2.28057 4.44083 2.40004 4.56517 2.40004 4.71838V11.9347C2.40004 12.0879 2.28057 12.2123 2.13337 12.2123Z" fill="#040404"/>
<path d="M8.00003 5.2357C7.94723 5.2357 7.89497 5.2196 7.84963 5.18741L1.36163 0.566738C1.24003 0.480142 1.2091 0.307506 1.2923 0.180942C1.3755 0.0543791 1.54083 0.021628 1.66297 0.108779L8.00003 4.62176L12.7776 1.21954C12.8998 1.13294 13.0656 1.16569 13.1483 1.2917C13.2315 1.41827 13.2006 1.5909 13.079 1.6775L8.15097 5.18685C8.1051 5.2196 8.05283 5.2357 8.00003 5.2357Z" fill="#040404"/>
<path d="M14.6667 12.2123H1.33333C0.5984 12.2123 0 11.5894 0 10.8245V1.38776C0 1.23455 0.119467 1.11021 0.266667 1.11021C0.413867 1.11021 0.533333 1.23455 0.533333 1.38776V10.8245C0.533333 11.2836 0.892267 11.6572 1.33333 11.6572H14.6667C15.1077 11.6572 15.4667 11.2836 15.4667 10.8245V1.38776C15.4667 0.928687 15.1077 0.555103 14.6667 0.555103C14.5195 0.555103 14.4 0.43076 14.4 0.277551C14.4 0.124343 14.5195 0 14.6667 0C15.4016 0 16 0.622826 16 1.38776V10.8245C16 11.5894 15.4016 12.2123 14.6667 12.2123Z" fill="#040404"/>
<path d="M8 7.77142C7.9472 7.77142 7.8944 7.75533 7.84853 7.72258L0.568533 2.49685C0.212267 2.2415 0 1.81962 0 1.36944C0 0.614498 0.5904 0 1.31573 0H14.6837C15.4096 0 16 0.614498 16 1.36944C16 1.81962 15.7877 2.24095 15.4315 2.49685L8.15147 7.72258C8.1056 7.75533 8.0528 7.77142 8 7.77142ZM1.31573 0.555102C0.884267 0.555102 0.533333 0.920359 0.533333 1.36944C0.533333 1.63755 0.659733 1.8879 0.871467 2.04L8 7.15693L15.1285 2.04C15.3403 1.8879 15.4667 1.63755 15.4667 1.36944C15.4667 0.920359 15.1157 0.555102 14.6843 0.555102H1.31573Z" fill="#040404"/>
</svg>
