<svg width="14" height="15" viewBox="0 0 14 15" fill="none" xmlns="http://www.w3.org/2000/svg">
<path d="M6.99996 3.03572C7.94307 3.03572 8.80903 3.37179 9.50031 3.93068L11.622 1.82391C10.3884 0.692116 8.77367 0 6.99996 0C4.31219 0 1.98135 1.57852 0.80835 3.8917L3.1676 5.83027C3.73911 4.20105 5.23682 3.03572 6.99996 3.03572Z" fill="#F44336"/>
<path d="M13.9394 8.19754C13.9758 7.89904 14 7.59455 14 7.28571C14 6.76487 13.9453 6.25771 13.8456 5.76785H7V8.80357H10.7836C10.4775 9.63158 9.93255 10.3322 9.23884 10.819L11.6069 12.7648C12.8621 11.6179 13.7212 10.012 13.9394 8.19754Z" fill="#2196F3"/>
<path d="M2.91666 7.28571C2.91666 6.77362 3.00816 6.28491 3.16763 5.83026L0.808384 3.89169C0.294194 4.90572 0 6.05938 0 7.28571C0 8.49833 0.288782 9.6392 0.792291 10.645L3.15453 8.70396C3.00325 8.25983 2.91666 7.78383 2.91666 7.28571Z" fill="#FFC107"/>
<path d="M6.99994 11.5357C5.22338 11.5357 3.71602 10.3527 3.15448 8.70395L0.792236 10.645C1.95951 12.9767 4.299 14.5714 6.99994 14.5714C8.76614 14.5714 10.3767 13.8885 11.6068 12.7647L9.23878 10.8189C8.59898 11.2679 7.83318 11.5357 6.99994 11.5357Z" fill="#00B060"/>
<path opacity="0.1" d="M7.00009 14.4197C4.93995 14.4197 3.08752 13.535 1.77783 12.1255C3.05989 13.623 4.92137 14.5714 7.00009 14.5714C9.0596 14.5714 10.9057 13.6417 12.1848 12.1676C10.879 13.5543 9.04066 14.4197 7.00009 14.4197Z" fill="black"/>
<path opacity="0.1" d="M7 8.65179V8.80357H10.7836L10.8427 8.65179H7Z" fill="black"/>
<path d="M13.9967 7.37456C13.9972 7.34477 14 7.31549 14 7.28563C14 7.27717 13.9987 7.26901 13.9987 7.26056C13.9983 7.29866 13.9964 7.33631 13.9967 7.37456Z" fill="#E6E6E6"/>
<path opacity="0.2" d="M7 5.76785V5.91964H13.8749C13.8657 5.86954 13.8557 5.81758 13.8456 5.76785H7Z" fill="white"/>
<path d="M13.8456 5.76786H7V8.80357H10.7836C10.1952 10.3953 8.73668 11.5357 7 11.5357C4.74485 11.5357 2.91667 9.63291 2.91667 7.28572C2.91667 4.93849 4.74485 3.03572 7 3.03572C7.81775 3.03572 8.57145 3.29719 9.20997 3.72828C9.3077 3.79438 9.40853 3.85646 9.50035 3.93068L11.622 1.82391L11.5742 1.7856C10.3465 0.678219 8.75206 0 7 0C3.13399 0 0 3.26191 0 7.28572C0 11.3095 3.13399 14.5714 7 14.5714C10.5686 14.5714 13.5073 11.79 13.9394 8.19754C13.9758 7.89905 14 7.59455 14 7.28572C14 6.76488 13.9453 6.25772 13.8456 5.76786Z" fill="url(#paint0_linear)"/>
<path opacity="0.1" d="M9.20993 3.57648C8.57141 3.1454 7.81771 2.88393 6.99996 2.88393C4.74481 2.88393 2.91663 4.78669 2.91663 7.13391C2.91663 7.15952 2.91696 7.17953 2.91738 7.20506C2.95673 4.89327 4.76941 3.03571 6.99996 3.03571C7.81771 3.03571 8.57141 3.29719 9.20993 3.72827C9.30766 3.79438 9.40849 3.85645 9.50031 3.93067L11.622 1.82391L9.50031 3.77889C9.40849 3.70466 9.30766 3.64259 9.20993 3.57648Z" fill="black"/>
<path opacity="0.2" d="M7 0.151786C8.73544 0.151786 10.315 0.818665 11.5379 1.9074L11.622 1.82391L11.5578 1.76574C10.3302 0.658361 8.75207 0 7 0C3.13399 0 0 3.26191 0 7.28572C0 7.31132 0.00341799 7.33604 0.00366719 7.36161C0.0431875 3.37319 3.1586 0.151786 7 0.151786Z" fill="white"/>
<defs>
<linearGradient id="paint0_linear" x1="0" y1="7.28572" x2="14" y2="7.28572" gradientUnits="userSpaceOnUse">
<stop stop-color="white" stop-opacity="0.2"/>
<stop offset="1" stop-color="white" stop-opacity="0"/>
</linearGradient>
</defs>
</svg>
