<svg width="64" height="58" viewBox="0 0 64 58" fill="none" xmlns="http://www.w3.org/2000/svg">
<path d="M24.5 46.5451C30.57 45.6951 33.69 38.4751 29.77 33.7551C29.59 33.5451 29.4 33.3351 29.2 33.1351C28.6266 32.5567 27.9773 32.0589 27.27 31.6551C22.56 28.9851 16.62 32.0951 15.7 37.4351C14.94 41.8351 13.88 48.0251 13.88 48.0251L24.5 46.5451Z" stroke="#E53232" stroke-width="2" stroke-linecap="round" stroke-linejoin="round"/>
<path d="M60.27 1.93515C60.8292 2.49661 61.1587 3.24666 61.1939 4.03835C61.229 4.83005 60.9673 5.60635 60.46 6.21515L39.02 31.7852C38.7369 32.1226 38.3869 32.3976 37.992 32.5926C37.5972 32.7877 37.1661 32.8986 36.7261 32.9184C36.2861 32.9381 35.8468 32.8662 35.4361 32.7073C35.0254 32.5484 34.6521 32.3059 34.34 31.9952L30.21 27.8452C29.8989 27.5346 29.6558 27.1627 29.4961 26.7532C29.3365 26.3436 29.2638 25.9053 29.2826 25.4662C29.3014 25.027 29.4113 24.5965 29.6054 24.2021C29.7995 23.8077 30.0735 23.458 30.41 23.1752L55.98 1.74515C56.5885 1.23278 57.3673 0.967911 58.162 1.00311C58.9567 1.0383 59.7092 1.37099 60.27 1.93515V1.93515Z" stroke="#E53232" stroke-width="2" stroke-linecap="round" stroke-linejoin="round"/>
<path d="M35.58 38.0352C50.8 38.5952 62.58 42.5452 62.58 47.3152C62.58 52.4852 48.79 56.6752 31.79 56.6752C14.79 56.6752 1 52.4852 1 47.3152C1 44.5652 4.9 42.0952 11.11 40.3852" stroke="#E53232" stroke-width="2" stroke-linecap="round" stroke-linejoin="round"/>
<path d="M39.65 41.8452C47.34 42.5652 52.92 44.7452 52.92 47.3252C52.92 50.4952 44.46 53.0652 34.03 53.0652C27.62 53.0652 21.95 52.0652 18.54 50.6052" stroke="#E53232" stroke-width="2" stroke-linecap="round" stroke-linejoin="round"/>
<path d="M34.67 26.6852L33.73 25.7752C33.6189 25.6651 33.5326 25.5325 33.4768 25.3863C33.421 25.2401 33.3971 25.0837 33.4066 24.9276C33.416 24.7714 33.4587 24.6191 33.5317 24.4807C33.6047 24.3423 33.7064 24.2212 33.83 24.1252L37.83 20.8452" stroke="#E53232" stroke-width="2" stroke-linecap="round" stroke-linejoin="round"/>
</svg>
