<svg width="26" height="24" viewBox="0 0 26 24" fill="none" xmlns="http://www.w3.org/2000/svg">
<path d="M25.6298 16.1671L17.8698 1.99205C17.614 1.54065 17.2434 1.165 16.7955 0.903221C16.3476 0.641439 15.8385 0.502848 15.3198 0.501513H10.8098C10.6346 0.499795 10.462 0.544174 10.3093 0.630203C10.1566 0.716232 10.0292 0.840889 9.93982 0.991688C9.85205 1.14376 9.80585 1.31627 9.80585 1.49187C9.80585 1.66747 9.85205 1.83997 9.93982 1.99205L21.6798 22.9995C21.7667 23.1541 21.893 23.2827 22.0458 23.3724C22.1987 23.462 22.3726 23.5094 22.5498 23.5097C22.7287 23.5112 22.9047 23.4647 23.0595 23.3749C23.2143 23.2852 23.3422 23.1556 23.4298 22.9995L25.6398 18.9981C25.8711 18.5618 25.9912 18.0752 25.9895 17.5814C25.9878 17.0875 25.8642 16.6017 25.6298 16.1671ZM23.8798 18.0578L22.5398 20.5087L12.5098 2.50223H15.3198C15.4817 2.50266 15.6406 2.54534 15.7809 2.62605C15.9212 2.70675 16.038 2.82269 16.1198 2.96239L23.8798 17.1375C23.9587 17.278 24.0001 17.4365 24.0001 17.5976C24.0001 17.7588 23.9587 17.9172 23.8798 18.0578Z" fill="white"/>
<path d="M18.4998 21.5091H4.99983C4.84159 21.509 4.68599 21.4685 4.54775 21.3915C4.40951 21.3145 4.2932 21.2035 4.20983 21.0689L2.73983 18.508H15.6598C15.925 18.508 16.1794 18.4026 16.3669 18.215C16.5545 18.0274 16.6598 17.773 16.6598 17.5077C16.6598 17.2424 16.5545 16.9879 16.3669 16.8003C16.1794 16.6127 15.925 16.5073 15.6598 16.5073H0.999826C0.823322 16.5074 0.64997 16.5541 0.497381 16.6429C0.344792 16.7316 0.218401 16.8592 0.13105 17.0126C0.0436979 17.166 -0.00150327 17.3399 3.81436e-05 17.5164C0.00157956 17.693 0.0498087 17.866 0.139826 18.0179L2.50983 22.0893C2.77341 22.5151 3.13934 22.8681 3.57426 23.1163C4.00918 23.3644 4.49926 23.4996 4.99983 23.5098H18.4998C18.765 23.5098 19.0194 23.4044 19.2069 23.2168C19.3945 23.0292 19.4998 22.7747 19.4998 22.5094C19.4998 22.2441 19.3945 21.9897 19.2069 21.8021C19.0194 21.6145 18.765 21.5091 18.4998 21.5091Z" fill="white"/>
<path d="M2.99981 15.1767H13.8998C14.075 15.1784 14.2476 15.134 14.4003 15.048C14.553 14.962 14.6804 14.8373 14.7698 14.6865C14.8576 14.5344 14.9038 14.3619 14.9038 14.1863C14.9038 14.0107 14.8576 13.8382 14.7698 13.6861L9.38981 4.21259C9.30255 4.0614 9.17726 3.93568 9.02639 3.84793C8.87552 3.76018 8.70432 3.71346 8.52981 3.7124C8.35529 3.71346 8.18409 3.76018 8.03322 3.84793C7.88235 3.93568 7.75706 4.0614 7.66981 4.21259L2.17981 13.6761C2.09204 13.8282 2.04584 14.0007 2.04584 14.1763C2.04584 14.3519 2.09204 14.5244 2.17981 14.6765C2.26355 14.822 2.38255 14.9441 2.52586 15.0315C2.66916 15.119 2.83215 15.1689 2.99981 15.1767ZM8.47981 6.72353L12.1498 13.176H4.77981L8.47981 6.72353Z" fill="white"/>
</svg>
