<svg width="26" height="23" viewBox="0 0 26 23" fill="none" xmlns="http://www.w3.org/2000/svg">
<path d="M25.6298 15.66L17.8698 1.49005C17.614 1.03882 17.2434 0.6633 16.7955 0.401612C16.3476 0.139924 15.8385 0.00138234 15.3198 4.80056e-05H10.8098C10.6346 -0.00166887 10.462 0.0426939 10.3093 0.128692C10.1566 0.21469 10.0292 0.339303 9.93982 0.490048C9.85205 0.642067 9.80585 0.814511 9.80585 0.990048C9.80585 1.16558 9.85205 1.33803 9.93982 1.49005L21.6798 22.49C21.7666 22.6445 21.893 22.7731 22.0458 22.8627C22.1987 22.9524 22.3726 22.9997 22.5498 23C22.7287 23.0015 22.9047 22.955 23.0595 22.8653C23.2143 22.7756 23.3422 22.646 23.4298 22.49L25.6398 18.49C25.8711 18.0539 25.9912 17.5675 25.9895 17.0738C25.9877 16.5801 25.8642 16.0945 25.6298 15.66ZM23.8798 17.55L22.5398 20L12.5098 2.00005H15.3198C15.4817 2.00048 15.6406 2.04315 15.7809 2.12382C15.9212 2.2045 16.038 2.32039 16.1198 2.46005L23.8798 16.63C23.9587 16.7705 24.0001 16.9289 24.0001 17.09C24.0001 17.2512 23.9587 17.4096 23.8798 17.55Z" fill="black"/>
<path d="M18.4998 21.0001H4.99983C4.84159 21 4.68599 20.9595 4.54775 20.8825C4.40951 20.8055 4.2932 20.6946 4.20983 20.5601L2.73983 18.0001H15.6598C15.925 18.0001 16.1794 17.8947 16.3669 17.7072C16.5545 17.5196 16.6598 17.2653 16.6598 17.0001C16.6598 16.7348 16.5545 16.4805 16.3669 16.293C16.1794 16.1054 15.925 16.0001 15.6598 16.0001H0.999826C0.823322 16.0001 0.64997 16.0468 0.497381 16.1356C0.344791 16.2243 0.218401 16.3518 0.13105 16.5052C0.0436979 16.6585 -0.00150327 16.8323 3.81436e-05 17.0088C0.00157956 17.1853 0.0498087 17.3582 0.139826 17.5101L2.50983 21.5801C2.77341 22.0057 3.13934 22.3587 3.57426 22.6067C4.00918 22.8547 4.49926 22.9899 4.99983 23.0001H18.4998C18.765 23.0001 19.0194 22.8947 19.2069 22.7072C19.3945 22.5196 19.4998 22.2653 19.4998 22.0001C19.4998 21.7348 19.3945 21.4805 19.2069 21.293C19.0194 21.1054 18.765 21.0001 18.4998 21.0001Z" fill="black"/>
<path d="M2.99981 14.6701H13.8998C14.075 14.6718 14.2477 14.6274 14.4003 14.5414C14.553 14.4554 14.6804 14.3308 14.7698 14.1801C14.8576 14.028 14.9038 13.8556 14.9038 13.6801C14.9038 13.5045 14.8576 13.3321 14.7698 13.1801L9.38981 3.71005C9.30256 3.55891 9.17727 3.43324 9.0264 3.34553C8.87553 3.25781 8.70433 3.21111 8.52981 3.21005C8.3553 3.21111 8.1841 3.25781 8.03323 3.34553C7.88236 3.43324 7.75707 3.55891 7.66981 3.71005L2.17981 13.1701C2.09204 13.3221 2.04584 13.4945 2.04584 13.6701C2.04584 13.8456 2.09204 14.018 2.17981 14.1701C2.26355 14.3155 2.38255 14.4376 2.52586 14.5249C2.66916 14.6123 2.83215 14.6622 2.99981 14.6701ZM8.47981 6.22005L12.1498 12.6701H4.77981L8.47981 6.22005Z" fill="black"/>
</svg>
