<svg width="60" height="56" viewBox="0 0 60 56" fill="none" xmlns="http://www.w3.org/2000/svg">
<path d="M50.052 18.0579V5.18889C50.052 3.34989 49.11 1.68689 47.532 0.742886C46.732 0.263886 45.847 0.016886 44.957 0.00188603C44.074 -0.022114 43.185 0.182886 42.37 0.619886L40 1.88989V1.91589L22.787 11.1379C21.542 11.8049 20.649 12.9349 20.264 14.2489L7.236 15.0449C5.59 15.1619 4.288 16.4509 4.091 18.0529H3.211C1.44 18.0519 0 19.4929 0 21.2629V26.8409C0 28.6119 1.44 30.0519 3.211 30.0519H4.096C4.313 31.8269 5.756 33.2549 7.588 33.3859L8.052 33.4139V50.7019C8.052 53.1829 10.071 55.2019 12.552 55.2019C15.033 55.2019 17.052 53.1829 17.052 50.7019V33.9619L20.29 34.1589C20.7 35.4859 21.627 36.6099 22.918 37.2539L40 45.7949V45.8209L42.499 47.0709C43.236 47.4399 44.029 47.6229 44.82 47.6229C44.828 47.6229 44.836 47.6209 44.844 47.6209C44.853 47.6209 44.863 47.6229 44.872 47.6229C45.815 47.6229 46.756 47.3619 47.594 46.8449C49.133 45.8939 50.052 44.2449 50.052 42.4359V30.0469C52.784 30.0189 55 27.7919 55 25.0519V23.0519C55 20.3129 52.784 18.0859 50.052 18.0579ZM15.052 50.7029C15.052 52.0819 13.931 53.2029 12.552 53.2029C11.173 53.2029 10.052 52.0819 10.052 50.7029V50.0529H12.052C12.605 50.0529 13.052 49.6059 13.052 49.0529C13.052 48.4999 12.605 48.0529 12.052 48.0529H10.052V46.0529H12.052C12.605 46.0529 13.052 45.6059 13.052 45.0529C13.052 44.4999 12.605 44.0529 12.052 44.0529H10.052V42.0529H12.052C12.605 42.0529 13.052 41.6059 13.052 41.0529C13.052 40.4999 12.605 40.0529 12.052 40.0529H10.052V38.0529H12.052C12.605 38.0529 13.052 37.6059 13.052 37.0529C13.052 36.4999 12.605 36.0529 12.052 36.0529H10.052V33.5409L15.052 33.8509V50.7029ZM43.446 45.2819L42 44.5589V3.11489L43.365 2.38389C43.787 2.15789 44.241 2.04889 44.698 2.02389C44.762 2.02189 44.824 2.00289 44.888 2.00389C44.894 2.00389 44.899 2.00489 44.905 2.00489C45.44 2.01989 45.972 2.17089 46.452 2.45889C47.422 3.03889 48 4.05889 48 5.18889V18.0519V30.0519V42.4349C48 43.5459 47.436 44.5579 46.49 45.1419C46.023 45.4309 45.504 45.5879 44.979 45.6149C44.458 45.6329 43.933 45.5249 43.446 45.2819ZM4 28.0519H3.211C2.543 28.0519 2 27.5089 2 26.8419V21.2639C2 20.5959 2.543 20.0529 3.211 20.0529H4V28.0519ZM6.052 29.5989V18.4649C6.052 17.7189 6.635 17.0929 7.368 17.0399L20.052 16.2659V32.1399L7.72 31.3909C6.784 31.3239 6.052 30.5369 6.052 29.5989ZM23.812 35.4649C22.726 34.9229 22.052 33.8319 22.052 32.6179V15.7079C22.052 14.5319 22.696 13.4569 23.733 12.9019L40 4.18589V43.5579L23.812 35.4649ZM53 25.0519C53 26.6889 51.682 28.0179 50.052 28.0469V20.0569C51.682 20.0859 53 21.4159 53 23.0519V25.0519Z" fill="#E63232"/>
<path d="M57.817 17.4759C57.5 17.0249 56.875 16.9169 56.423 17.2349C55.972 17.5529 55.863 18.1759 56.182 18.6289C57.338 20.2699 57.95 22.1029 57.999 24.0789C58.063 26.5719 56.753 28.6799 56.186 29.4699C55.864 29.9189 55.967 30.5438 56.415 30.8658C56.592 30.9928 56.796 31.0538 56.997 31.0538C57.309 31.0538 57.615 30.9088 57.81 30.6368C58.495 29.6818 60.078 27.1269 59.998 24.0289C59.939 21.6499 59.205 19.4459 57.817 17.4759Z" fill="#E63232"/>
<path d="M31.896 12.6089C31.651 12.1149 31.054 11.9099 30.556 12.1559L26.105 14.3569C24.807 15.0519 24 16.3989 24 17.8729V20.0529C24 20.6059 24.447 21.0529 25 21.0529C25.553 21.0529 26 20.6059 26 20.0529V17.8729C26 17.1389 26.402 16.4669 27.021 16.1359L31.444 13.9489C31.938 13.7039 32.142 13.1039 31.896 12.6089Z" fill="#E63232"/>
<path d="M25 22.052C24.447 22.052 24 22.499 24 23.052V25.052C24 25.605 24.447 26.052 25 26.052C25.553 26.052 26 25.605 26 25.052V23.052C26 22.5 25.553 22.052 25 22.052Z" fill="#E63232"/>
</svg>
