<svg width="70" height="52" viewBox="0 0 70 52" fill="none" xmlns="http://www.w3.org/2000/svg">
<path d="M34.994 40.5218C41.6449 40.5218 47.0404 35.1042 47.0404 28.4754C47.0404 21.8465 41.6229 16.429 34.994 16.429C28.3652 16.429 22.9476 21.8465 22.9476 28.4754C22.9476 35.1042 28.3432 40.5218 34.994 40.5218ZM34.994 19.0497C40.1914 19.0497 44.3977 23.278 44.3977 28.4533C44.3977 33.6287 40.1694 37.857 34.994 37.857C29.8187 37.857 25.5904 33.6287 25.5904 28.4533C25.5904 23.278 29.7967 19.0497 34.994 19.0497Z" fill="#E63232"/>
<path d="M8.19245 12.7731H10.9673C11.6941 12.7731 12.2887 12.1785 12.2887 11.4517C12.2887 10.725 11.6941 10.1304 10.9673 10.1304H8.19245C7.46571 10.1304 6.87109 10.725 6.87109 11.4517C6.87109 12.1785 7.46571 12.7731 8.19245 12.7731Z" fill="#E63232"/>
<path d="M57.3911 12.7731H62.9408C63.6675 12.7731 64.2621 12.1785 64.2621 11.4517C64.2621 10.725 63.6675 10.1304 62.9408 10.1304H57.3911C56.6643 10.1304 56.0697 10.725 56.0697 11.4517C56.0697 12.1785 56.6643 12.7731 57.3911 12.7731Z" fill="#E63232"/>
<path d="M66.7067 5.06522H51.3569C49.8593 5.06522 48.4719 4.33847 47.613 3.1052C46.2696 1.1672 44.0674 0 41.6889 0H28.2551C25.8987 0 23.6744 1.1672 22.331 3.1052C21.4721 4.33847 20.0847 5.06522 18.5871 5.06522H15.7682V2.20227C15.7682 1.47552 15.1736 0.880907 14.4469 0.880907H4.91106C4.18431 0.880907 3.5897 1.47552 3.5897 2.20227V5.06522H3.28138C1.47552 5.06522 0 6.54073 0 8.34659V48.7142C0 50.52 1.47552 51.9955 3.28138 51.9955H66.7067C68.5126 51.9955 69.9881 50.52 69.9881 48.7142V8.32457C69.9881 6.54073 68.5126 5.06522 66.7067 5.06522ZM67.3453 44.5959H63.4473V24.0047H67.3453V44.5959ZM6.25444 3.52363H13.1475V5.06522H6.25444V3.52363ZM3.28138 7.70794H4.9551H14.4909H18.6312C20.9876 7.70794 23.2119 6.54073 24.5553 4.60274C25.4142 3.36947 26.8016 2.64272 28.2991 2.64272H41.733C43.2305 2.64272 44.6179 3.36947 45.4768 4.60274C46.8202 6.54073 49.0225 7.70794 51.4009 7.70794H66.7067C67.0591 7.70794 67.3453 7.99423 67.3453 8.34659V16.6051H49.1326C45.6971 12.641 40.6318 10.1304 34.994 10.1304C29.3562 10.1304 24.291 12.641 20.8555 16.6051H2.64272V8.32457C2.64272 7.99423 2.92902 7.70794 3.28138 7.70794ZM34.994 12.7732C43.8471 12.7732 51.0706 19.9746 51.0706 28.8497C51.0706 37.7028 43.8692 44.9263 34.994 44.9263C26.1189 44.9263 18.9175 37.7248 18.9175 28.8497C18.9175 19.9746 26.1409 12.7732 34.994 12.7732ZM66.7067 49.3308H3.28138C2.92902 49.3308 2.64272 49.0445 2.64272 48.6921V19.2478H18.9395C17.2658 22.0447 16.2968 25.3261 16.2968 28.8277C16.2968 39.1343 24.6874 47.547 35.0161 47.547C45.3447 47.547 53.7353 39.1563 53.7353 28.8277C53.7353 25.3261 52.7663 22.0447 51.0926 19.2478H67.3894V21.34H62.17C61.4433 21.34 60.8487 21.9346 60.8487 22.6613V45.8953C60.8487 46.622 61.4433 47.2166 62.17 47.2166H67.3894V48.6921C67.3454 49.0445 67.0591 49.3308 66.7067 49.3308Z" fill="#E63232"/>
</svg>
