<svg width="64" height="57" viewBox="0 0 64 57" fill="none" xmlns="http://www.w3.org/2000/svg">
<path d="M62.7203 20H1.27965C0.781728 20 0.329244 19.7119 0.119322 19.2609C-0.0906008 18.8099 -0.0195604 18.2784 0.301083 17.8989L15.0366 0.454196C15.2798 0.166091 15.6376 0 16.0152 0H47.988C48.3656 0 48.7234 0.166091 48.9666 0.454196L63.6989 17.8989C64.0196 18.279 64.0906 18.8105 63.8807 19.2609C63.6708 19.7113 63.2183 20 62.7203 20ZM4.03361 17.4447H59.9677L47.3935 2.55526H16.6104L4.03361 17.4447Z" fill="#E21919"/>
<path d="M32 57L0 19.6364L1.97698 18L32 53.0546L62.023 18L64 19.6364L32 57Z" fill="#E21919"/>
<path d="M31.999 56C31.4611 56 30.9828 55.6606 30.8041 55.153L18.0724 18.9877C17.9323 18.5912 17.9982 18.1521 18.2466 17.8133L30.9783 0.487271C31.4548 -0.162424 32.5413 -0.162424 33.019 0.487271L45.7533 17.8133C46.0023 18.1515 46.0675 18.5912 45.9275 18.9877L33.1932 55.153C33.0152 55.6606 32.5369 56 31.999 56ZM20.6851 18.7771L31.9983 50.9154L43.3141 18.7771L31.999 3.38044L20.6851 18.7771Z" fill="#E21919"/>
<path d="M20.3973 18.6735L17.2743 1.19629L14.7541 1.64661L17.8771 19.1238L20.3973 18.6735Z" fill="#E21919"/>
<path d="M49.2493 1.64589L46.7291 1.19531L43.6043 18.6732L46.1244 19.1237L49.2493 1.64589Z" fill="#E21919"/>
</svg>
