<svg width="71" height="68" viewBox="0 0 71 68" fill="none" xmlns="http://www.w3.org/2000/svg">
<path fill-rule="evenodd" clip-rule="evenodd" d="M52.7513 21.9332L47.9141 26.2581L47.867 26.2999C49.5716 26.2999 51.2766 26.2999 52.9786 26.2999L52.7513 21.9332ZM50.1128 31.0485L51.4569 38.0457H58.9876V30.3739C58.9876 30.0026 59.2885 29.7045 59.6573 29.7045C60.0259 29.7045 60.3262 30.0026 60.3262 30.3739V38.0981H65.1088V25.8816L54.014 21.5253L54.2938 26.9068C54.3096 27.2624 54.0378 27.5656 53.6849 27.5813H50.1128V31.0485ZM50.1497 38.0457L48.9415 31.7493H46.3789L45.0902 37.1096L47.4747 38.0457H50.1497ZM39.5833 9.51794C41.0005 10.1403 42.2708 11.0189 43.3487 12.091C44.6244 13.3724 45.6233 14.9253 46.2457 16.6618L46.8575 16.7559C47.1742 16.7924 47.5004 16.8133 47.8356 16.8133C50.1313 16.8133 52.2099 15.8824 53.7137 14.3764C55.2196 12.8755 56.1506 10.7938 56.1506 8.49841C56.1506 6.20252 55.2196 4.12103 53.7137 2.6201C52.2099 1.11409 50.1312 0.183239 47.8356 0.183239C45.54 0.183239 43.4633 1.11409 41.9576 2.6201C40.4537 4.12103 39.5206 6.20267 39.5206 8.49841C39.5206 8.72838 39.5307 8.96375 39.5519 9.18864L39.5833 9.51794ZM39.9231 11.1757L39.9125 11.202L39.9022 11.228L39.892 11.249V11.2542L39.8812 11.2805L39.871 11.3067L39.858 11.3327L39.8472 11.3537L39.8449 11.3642L39.8368 11.3799L39.8238 11.406L39.8136 11.4321L39.8028 11.4583L39.7953 11.474L39.7925 11.4793L39.7556 11.5578L39.7454 11.5786V11.584L39.641 11.7984L39.6382 11.8037L39.5911 11.9031H39.5883C39.447 12.1905 39.2955 12.468 39.1336 12.7347L39.0708 12.8392L39.0654 12.8445L39.0238 12.9123L39.0079 12.9386L39.0026 12.9436L38.8825 13.132L38.8721 13.1425L38.8667 13.1582L38.8095 13.242L38.7987 13.2577L38.7023 13.3988L38.684 13.4249L38.6738 13.4406L38.6684 13.446L38.6341 13.4931L38.6158 13.5193L38.6056 13.535L38.6002 13.5453L38.5845 13.5663L38.566 13.5925L38.5482 13.6135L38.5374 13.6343L38.5326 13.6396L38.5168 13.6604L38.4984 13.6868L38.4801 13.7076L38.4643 13.7286V13.734L38.446 13.7548L38.4275 13.781L38.4117 13.8019L38.394 13.8228L38.3912 13.8281L38.3753 13.849L38.3596 13.87L38.3385 13.8961L38.3227 13.9171L38.3044 13.9433L38.2865 13.9643L38.2681 13.9851L38.2498 14.0115L38.2339 14.0323L38.2127 14.0584L38.197 14.0793L38.1763 14.1005V14.1056L38.1606 14.1265L38.1395 14.1475L38.1238 14.1685L38.1026 14.1895L38.1003 14.1945L38.0869 14.2157L38.0662 14.2365L38.0505 14.2575C38.9761 15.1205 40.0533 15.8263 41.235 16.3285C42.4015 16.8253 43.6726 17.1233 45.0085 17.1862C44.4569 15.6122 43.5572 14.2001 42.4015 13.0442C41.6695 12.3105 40.8381 11.683 39.9231 11.1757ZM24.4694 16.5936C25.0134 16.8133 25.5833 16.9913 26.1635 17.1219C26.9274 17.2893 27.7274 17.3783 28.5589 17.3783C30.9071 17.3783 33.0875 16.6408 34.8685 15.391L34.908 15.3648C35.5249 14.9252 36.095 14.4285 36.6071 13.8796L36.6179 13.8639L36.6386 13.8375L36.6856 13.7906L36.7069 13.7695L36.7121 13.7642L36.958 13.482L36.9656 13.4715L37.1411 13.2571H37.1439L37.167 13.2258L37.1881 13.1995L37.204 13.1838L37.2088 13.1733L37.3186 13.032H37.3214L37.3399 13.006L37.361 12.9799L37.3788 12.9537L37.3815 12.9486L37.484 12.8073L37.4915 12.7968L37.5256 12.7498L37.544 12.7235L37.5489 12.7185L37.5646 12.6922L37.6067 12.6347L37.6274 12.6085L37.6641 12.5509L37.6852 12.5196L37.8757 12.2269L37.8942 12.1956L37.9126 12.1694L37.9202 12.1536L37.9857 12.049C38.1767 11.7301 38.3543 11.4005 38.5112 11.0658L38.5215 11.05V11.0448L38.5323 11.0187L38.5425 10.9979L38.5527 10.9768L38.5635 10.961V10.9505L38.5737 10.9297L38.5868 10.9035L38.6025 10.8722L38.6053 10.8617L38.642 10.7833L38.6468 10.7675L38.6576 10.7465L38.6679 10.7203L38.6781 10.6994V10.6942L38.6889 10.6732L38.6965 10.6524L38.7066 10.6313L38.7148 10.605C37.7681 10.2233 36.7536 9.97234 35.6971 9.86776L35.4309 9.84694L35.394 9.8417H35.3653H35.3571H35.3183L35.2971 9.83645H35.2788H35.2425H35.2323L35.2032 9.83121H35.1642H35.1273L35.096 9.82612H35.0884H35.0489H35.0311H35.0125L34.9757 9.82103H34.9627H34.934H34.8972H34.8582H34.8295H34.8187H34.7824H34.7613H34.7402L34.7039 9.81563H34.6931H34.6644H34.6256L34.5157 9.82103H34.4843H34.4058H34.343L34.2017 9.82612H34.1833L34.0761 9.83121H34.0604L33.9668 9.83645L33.9196 9.8417L33.8568 9.84694L33.7783 9.85203H33.7468L33.6424 9.86252H33.637L33.5298 9.87285H33.5011L33.4226 9.88334L33.3652 9.88843L33.3154 9.89383L33.224 9.90401L33.1012 9.92499H33.0876L32.994 9.93548L32.9517 9.94581L32.8889 9.9563L32.8158 9.96679L32.779 9.97188L32.68 9.98761H32.6745C32.5414 10.0138 32.4082 10.0401 32.2772 10.0712H32.2561L32.1517 10.0976H32.1413L32.0499 10.1236L32.0104 10.1289L31.9476 10.1445L31.7463 10.1969H31.7414L31.6158 10.2335L31.5373 10.2597L31.4849 10.2754C31.3572 10.3118 31.2261 10.3538 31.0979 10.3956L31.0377 10.4166C30.7714 10.5056 30.5121 10.6101 30.2588 10.7198L30.2221 10.7355C28.9566 11.2902 27.8112 12.0745 26.8492 13.0419C25.8393 14.052 25.0263 15.2548 24.4694 16.5936ZM37.1409 15.2392C36.6856 15.6785 36.1994 16.0863 35.6815 16.4526L35.6397 16.4787C33.6342 17.8906 31.1897 18.7171 28.5589 18.7171C27.6463 18.7171 26.7494 18.6123 25.879 18.4243C25.2435 18.283 24.6264 18.0895 24.0298 17.8542C23.7683 18.8008 23.6277 19.7892 23.6277 20.8141C23.6277 23.8524 24.8619 26.6033 26.849 28.5959C28.8389 30.5832 31.5898 31.8174 34.6254 31.8174C37.661 31.8174 40.4121 30.5832 42.4018 28.5959C44.389 26.6033 45.6233 23.8524 45.6233 20.8141C45.6233 20.0349 45.5398 19.2714 45.3878 18.5392C43.7329 18.5183 42.1508 18.168 40.7124 17.5562C39.3867 16.9913 38.1813 16.2066 37.1409 15.2392ZM36.1053 45.4143H32.7216V49.5353H36.1053V45.4143ZM37.392 50.1262L39.1697 59.3931H49.31V49.2268C49.31 48.8607 49.6083 48.5573 49.9797 48.5573C50.3457 48.5573 50.6488 48.8607 50.6488 49.2268V59.4506H57.2537V43.2649L47.3699 39.3847C47.234 39.3742 47.1113 39.3217 47.009 39.2434L44.1015 38.0981L44.0886 38.0929L44.075 38.0877L42.4434 37.4497L42.8201 44.7398C42.8358 45.0901 42.5636 45.3935 42.2133 45.4092H37.3917V50.1262H37.392ZM29.2047 59.3931L31.4354 50.1157V45.4144H26.6474C26.2945 45.4144 26.0044 45.1269 26.0044 44.7711L26.3833 37.4497L11.5758 43.2649V59.4507H18.1831V49.227C18.1831 48.8608 18.4814 48.5574 18.8526 48.5574C19.2213 48.5574 19.5222 48.8608 19.5222 49.227V59.3932H29.2047V59.3931ZM37.8651 59.3931L36.2201 50.8217H32.5829L30.52 59.3931H37.8651ZM22.5996 27.3981H20.291V30.2798H22.5996V27.3981ZM21.6426 37.8626L24.0298 36.9213L22.7382 31.566H20.1756L18.9679 37.8625H21.6426V37.8626ZM21.248 26.1117L21.2058 26.075L16.4915 21.8601L16.1597 26.1117C17.8567 26.1117 19.5537 26.1117 21.248 26.1117ZM17.6602 37.8626L19.0043 30.8705V27.3979H15.4171C15.0663 27.3719 14.7999 27.0632 14.8259 26.7077L15.2497 21.2793L4.00828 25.6984V37.9095H8.7907V30.1905C8.7907 29.8194 9.09162 29.5212 9.46026 29.5212C9.83167 29.5212 10.1294 29.8194 10.1294 30.1905V37.8625H17.6602V37.8626ZM40.3205 38.6209C40.2523 38.7308 40.1533 38.8195 40.0379 38.8772L34.5941 43.7459C34.3456 43.9865 33.9511 43.9865 33.7026 43.7459L27.6437 37.92L27.3222 44.1276H32.063H32.0787H36.7485H36.7643H41.505L41.1808 37.8574L40.3205 38.6209ZM40.3936 31.7232L40.4149 36.8274L41.2984 36.0378L41.309 36.0271L41.3193 36.0168L41.3405 35.996H41.3432C41.3823 35.9593 41.4238 35.9332 41.471 35.9122L41.4764 35.9071C41.5495 35.8704 41.6306 35.8493 41.7167 35.8493C41.8218 35.8442 41.9235 35.8599 42.0123 35.9017L42.0281 35.9071L43.8875 36.6392L45.2338 31.0434V27.5866H44.9437C44.4782 28.2927 43.945 28.9464 43.349 29.5425C42.4803 30.4052 41.4865 31.1477 40.3936 31.7232ZM29.7173 32.1361L29.7406 38.1608L34.1653 42.4124L39.0864 38.0141L39.0597 32.3297C37.6848 32.8632 36.1893 33.1559 34.6254 33.1559C32.8814 33.1561 31.2207 32.7899 29.7173 32.1361ZM28.4021 36.8742L28.3814 31.4562C27.4737 30.923 26.6395 30.2796 25.9023 29.5422C25.2565 28.8939 24.6784 28.1773 24.1896 27.3981H23.8837V30.8602L25.2489 36.5187L26.8436 35.8913C26.901 35.865 26.9616 35.8547 27.0217 35.8493H27.0265H27.0347H27.0423L27.045 35.8442L27.1104 35.8493H27.1262H27.1289H27.1419H27.1522H27.1576L27.1889 35.8547L27.1993 35.8599H27.2075H27.2096L27.2334 35.865H27.2361L27.2463 35.8703H27.2517H27.2567L27.2675 35.8755L27.2776 35.8806H27.283H27.288L27.2934 35.8859H27.2988L27.3117 35.8911H27.3145L27.3221 35.8963H27.3275L27.3324 35.9014H27.3406L27.3433 35.9068H27.3563V35.9119H27.3666L27.3694 35.917H27.3776L27.3824 35.9224L27.3878 35.9275L27.3953 35.9328H27.3981L27.4063 35.9378H27.409L27.4166 35.9431L27.4248 35.9483L27.4351 35.9534L27.4453 35.9639H27.4507L27.4556 35.9692L27.461 35.9742H27.4664L27.474 35.9847L27.4822 35.9898L27.4923 36.0003H27.4977L27.5027 36.0056L27.5081 36.0159H27.5108L27.5184 36.0211V36.0262L27.5292 36.0315V36.0369H27.5341L27.5423 36.047H27.5451L28.4021 36.8742ZM21.2821 0C18.9885 0 16.9072 0.930849 15.404 2.43177C13.9003 3.9381 12.9691 6.01943 12.9691 8.31532C12.9691 10.6058 13.9003 12.6875 15.404 14.1933L15.4326 14.2246C16.9333 15.71 19.0015 16.6251 21.2821 16.6251C21.6194 16.6251 21.9484 16.6094 22.2679 16.5676C22.4769 16.5466 22.6781 16.5153 22.8742 16.4735C23.4469 14.8785 24.3384 13.4351 25.4682 12.2218C26.6061 11.0034 27.9892 10.0149 29.5319 9.33501L29.5686 9.00555C29.5843 8.77558 29.5973 8.54529 29.5973 8.31517C29.5973 6.01928 28.6635 3.93794 27.1624 2.43162C25.6564 0.930849 23.5778 0 21.2821 0ZM2.50458 64.1261C2.14889 64.1261 1.86154 63.8385 1.86154 63.4828C1.86154 63.1325 2.14889 62.8448 2.50458 62.8448H49.7573C50.113 62.8448 50.4009 63.1323 50.4009 63.4828C50.4009 63.8385 50.113 64.1261 49.7573 64.1261H2.50458ZM30.1748 67.0023C29.8191 67.0023 29.5317 66.7146 29.5317 66.3591C29.5317 66.0034 29.8191 65.7157 30.1748 65.7157H62.8732C63.2261 65.7157 63.5169 66.0034 63.5169 66.3591C63.5169 66.7146 63.2261 67.0023 62.8732 67.0023H30.1748ZM66.2201 67.0023C65.8672 67.0023 65.5771 66.7146 65.5771 66.3591C65.5771 66.0034 65.8672 65.7157 66.2201 65.7157H70.307C70.6627 65.7157 70.9507 66.0034 70.9507 66.3591C70.9507 66.7146 70.6627 67.0023 70.307 67.0023H66.2201ZM0.643033 66.9134C0.287352 66.9134 0 66.6259 0 66.2753C0 65.9198 0.287352 65.6321 0.643033 65.6321H16.1386C16.4943 65.6321 16.7816 65.9198 16.7816 66.2753C16.7816 66.6258 16.4943 66.9134 16.1386 66.9134H0.643033ZM9.21193 40.2944C9.51779 40.1167 9.91018 40.2211 10.0851 40.5298C10.2605 40.8332 10.156 41.2252 9.8474 41.4031L6.88704 43.1081V54.6446C6.88704 55.0003 6.59954 55.2879 6.24401 55.2879C5.89111 55.2879 5.6036 55.0003 5.6036 54.6446V42.7421C5.60576 42.5223 5.72113 42.3079 5.92797 42.1874L9.21193 40.2944ZM63.4276 22.0117C63.0854 21.9176 62.8814 21.5671 62.9755 21.222C63.0643 20.882 63.4172 20.6781 63.7599 20.7723L69.4468 22.2939C69.7348 22.3726 69.9227 22.6288 69.9227 22.9163L69.9254 33.6788C69.9254 34.0347 69.6353 34.3222 69.2824 34.3222C68.9267 34.3222 68.6392 34.0347 68.6392 33.6788V23.4079L63.4276 22.0117ZM48.8289 27.5863H46.5174V30.4626H48.8289V27.5863Z" fill="#E21919"/>
</svg>
