<svg width="67" height="63" viewBox="0 0 67 63" fill="none" xmlns="http://www.w3.org/2000/svg">
<path d="M48.4377 10.026C48.9498 12.6403 51.2407 14.5539 53.9089 14.5539C56.5771 14.5539 58.868 12.6403 59.3801 10.026L60.0539 6.60316C60.2695 4.93216 59.7844 3.26115 58.6793 1.99443C57.5743 0.727696 55.9842 0 54.3132 0H53.5316C51.8606 0 50.2704 0.727696 49.1654 1.99443C48.0604 3.26115 47.5483 4.93216 47.7909 6.68402L48.4377 10.026ZM51.1868 3.77324C51.7797 3.09944 52.6422 2.69517 53.5585 2.69517H54.3401C55.2565 2.69517 56.092 3.07249 56.7119 3.77324C57.3048 4.44703 57.5743 5.36339 57.4665 6.17194L56.8197 9.51395C56.5502 10.8885 55.3643 11.8587 53.9628 11.8587C52.5613 11.8587 51.3754 10.8615 51.1059 9.51395L50.4591 6.25279C50.3243 5.36339 50.5938 4.44703 51.1868 3.77324Z" fill="#E21919"/>
<path d="M66.4684 27.7871L64.9321 20.5101C64.7435 19.6207 64.0966 18.893 63.2611 18.5966L57.9516 16.71L53.9628 20.6988L49.9739 16.71L44.6645 18.5966C43.829 18.893 43.1821 19.6207 42.9935 20.5101L41.4572 27.7871C41.2955 28.5148 41.7537 29.2155 42.4814 29.3773C43.2091 29.539 43.9098 29.0808 44.0715 28.3531L45.5808 21.13L49.3001 19.8094L53.9897 24.499L58.6793 19.8094L62.3448 21.0761L63.881 28.3531C64.0158 28.973 64.5818 29.4042 65.2016 29.4042C65.2825 29.4042 65.3903 29.4042 65.4712 29.3773C66.145 29.2425 66.6031 28.5148 66.4684 27.7871Z" fill="#E21919"/>
<path d="M7.06685 10.026C7.57893 12.6403 9.86982 14.5539 12.538 14.5539C15.2063 14.5539 17.4971 12.6403 18.0092 10.026L18.683 6.60316C18.8986 4.93216 18.4135 3.26115 17.3085 1.99443C16.2035 0.727696 14.6133 0 12.9423 0H12.1607C10.4897 0 8.89956 0.727696 7.79454 1.99443C6.68952 3.26115 6.17744 4.93216 6.42 6.68402L7.06685 10.026ZM9.81592 3.77324C10.4089 3.09944 11.2713 2.69517 12.1877 2.69517H12.9693C13.8856 2.69517 14.7211 3.07249 15.341 3.77324C15.934 4.44703 16.2035 5.36339 16.0957 6.17194L15.4488 9.51395C15.1793 10.8885 13.9934 11.8587 12.5919 11.8587C11.1905 11.8587 10.0046 10.8615 9.73506 9.51395L9.08822 6.25279C8.92651 5.36339 9.22298 4.44703 9.81592 3.77324Z" fill="#E21919"/>
<path d="M17.2546 19.8094L20.92 21.0761L22.4563 28.3531C22.591 28.973 23.157 29.4042 23.7769 29.4042C23.8578 29.4042 23.9656 29.4042 24.0464 29.3773C24.7741 29.2155 25.2323 28.5148 25.0706 27.7871L23.5343 20.5101C23.3457 19.6207 22.6988 18.893 21.8633 18.5966L16.5539 16.71L12.538 20.7258L8.5492 16.71L3.23971 18.5966C2.40421 18.893 1.75737 19.6207 1.56871 20.5101L0.0324629 27.7871C-0.129247 28.5148 0.328932 29.2155 1.05663 29.3773C1.78432 29.539 2.48507 29.0808 2.64678 28.3531L4.12912 21.13L7.84845 19.8094L12.538 24.499L17.2546 19.8094Z" fill="#E21919"/>
<path d="M33.237 48.028C35.9052 48.028 38.1961 46.1145 38.7081 43.5001L39.3819 40.0773C39.5976 38.4063 39.1124 36.7353 38.0074 35.4685C36.9024 34.2018 35.3122 33.4741 33.6412 33.4741H32.8596C31.1886 33.4741 29.5985 34.2018 28.4935 35.4685C27.3884 36.7353 26.8764 38.4063 27.1189 40.1581L27.7658 43.5001C28.2778 46.1145 30.5687 48.028 33.237 48.028ZM30.4879 37.2474C31.0808 36.5736 31.9433 36.1693 32.8596 36.1693H33.6412C34.5576 36.1693 35.3931 36.5466 36.013 37.2474C36.6059 37.9211 36.8754 38.8375 36.7676 39.6461L36.1208 42.9881C35.8513 44.3626 34.6654 45.3329 33.2639 45.3329C31.8624 45.3329 30.6765 44.3357 30.407 42.9881L29.7602 39.7269C29.6254 38.8375 29.8949 37.9211 30.4879 37.2474Z" fill="#E21919"/>
<path d="M44.2333 54.0111C44.0446 53.1217 43.3978 52.394 42.5622 52.0976L37.2528 50.2109L33.237 54.1998L29.2481 50.2109L23.9386 52.0976C23.1031 52.394 22.4563 53.1217 22.2676 54.0111L20.7314 61.2881C20.5697 62.0158 21.0278 62.7165 21.7555 62.8782C22.4832 63.0399 23.184 62.5818 23.3457 61.8541L24.828 54.631L28.5474 53.3104L33.237 58L37.9266 53.3104L41.592 54.5771L43.1282 61.8541C43.263 62.474 43.829 62.9052 44.4489 62.9052C44.5297 62.9052 44.6375 62.9052 44.7184 62.8782C45.4461 62.7165 45.9043 62.0158 45.7425 61.2881L44.2333 54.0111Z" fill="#E21919"/>
<path d="M56.2537 32.935C55.4991 32.8542 54.8522 33.3932 54.7983 34.1479C54.2593 39.7269 51.5911 44.7938 47.3327 48.4322C46.7667 48.9174 46.7128 49.7529 47.171 50.3189C47.4405 50.6423 47.8178 50.777 48.1952 50.777C48.4916 50.777 48.815 50.6692 49.0576 50.4536C53.855 46.357 56.8466 40.6702 57.4665 34.3904C57.5204 33.6627 56.9814 33.0159 56.2537 32.935Z" fill="#E21919"/>
<path d="M11.7025 34.1479C11.6217 33.4202 10.9748 32.8812 10.2471 32.9351C9.51942 33.016 8.98039 33.6628 9.03429 34.3905C9.65418 40.6702 12.6458 46.384 17.4432 50.4537C17.6858 50.6693 18.0092 50.7771 18.3057 50.7771C18.683 50.7771 19.0603 50.6154 19.3298 50.292C19.815 49.726 19.7341 48.8905 19.1681 48.4054C14.9098 44.7939 12.2415 39.7269 11.7025 34.1479Z" fill="#E21919"/>
<path d="M26.1486 11.5351C30.6496 9.945 35.8243 9.945 40.3522 11.5351C40.4869 11.589 40.6487 11.616 40.8104 11.616C41.3494 11.616 41.8884 11.2656 42.0771 10.7266C42.3197 10.0259 41.9693 9.2712 41.2685 9.02864C36.1747 7.22288 30.3801 7.22288 25.2862 9.02864C24.5854 9.2712 24.2351 10.0528 24.4776 10.7266C24.6663 11.4273 25.4479 11.7777 26.1486 11.5351Z" fill="#E21919"/>
</svg>
